<svg xmlns="http://www.w3.org/2000/svg" width="122.25" height="27.044" viewBox="0 0 122.25 27.044"><defs><style>.a,.b,.c{fill:#fff;}.a{stroke:#fff;stroke-linecap:round;stroke-linejoin:round;stroke-width:0.5px;}.a,.b{fill-rule:evenodd;}.c{font-size:12px;font-family:OpenSans-Bold, Open Sans;font-weight:700;}</style></defs><g transform="translate(-50.75 -13.75)"><g transform="translate(51 14)"><g transform="translate(0.164 0)"><path class="a" d="M-2.791,0-2.9.056l-16.33,8.331.164.387L-2.679.44-2.791.5Z" transform="translate(19.233)"/></g><g transform="translate(16.607 0)"><path class="a" d="M-3.334-.009l-.108-.056H-22.979v.5H-3.442L-3.554.374Z" transform="translate(22.979 0.065)"/></g><g transform="translate(36.033 0.056)"><path class="a" d="M-2.829-1.414-3-1.634-19.276-9.745l-.22.385L-3.16-1.191l-.167-.223h.5v-.164L-3-1.634Z" transform="translate(19.496 9.745)"/></g><g transform="translate(36.033 17.935)"><path class="a" d="M-.019-1.461l.108-.055L16.37-9.627l-.164-.443L-.131-1.9l.112-.053Z" transform="translate(0.131 10.07)"/></g><g transform="translate(16.495 26.049)"><path class="a" d="M0-.075.112-.02H19.649V-.515H.112l.112.053Z" transform="translate(0 0.515)"/></g><g transform="translate(0.052 17.935)"><path class="a" d="M0-.037.112.186,16.442,8.3l.224-.388L.332-.257l.112.22H0V.13L.112.186Z" transform="translate(0 0.257)"/></g><g transform="translate(0 8.387)"><path class="a" d="M-.028,0-.192.223-.14,9.768H.3V.223L.136.387-.028,0-.192.056V.223Z" transform="translate(0.192)"/></g><g transform="translate(13.351 4.91)"><path class="a" d="M-4.43,0h-26.1V.443H-4.541Z" transform="translate(30.534)"/></g><g transform="translate(39.345 4.911)"><path class="a" d="M-2.267-.59l-.167-.22L-15.512-4.066l-.11.443L-2.6-.367-2.765-.59h.5V-.754L-2.433-.81Z" transform="translate(15.622 4.066)"/></g><g transform="translate(52.201 8.387)"><path class="a" d="M-.056-1.7.11-1.919v-9.768h-.5v9.768l.168-.22.164.443L.11-1.751v-.168Z" transform="translate(0.388 11.687)"/></g><g transform="translate(39.345 17.935)"><path class="a" d="M-.009-.628H.045L13.124-3.883l-.164-.443L-.064-1.071h.055Z" transform="translate(0.064 4.326)"/></g><g transform="translate(13.296 21.191)"><path class="a" d="M0-.075H26.1V-.518H.111Z" transform="translate(0 0.518)"/></g><g transform="translate(0.052 17.935)"><path class="a" d="M0-.037.168.186,13.243,3.441,13.355,3,.276-.257l.168.22H0V.13L.168.186Z" transform="translate(0 0.257)"/></g><g transform="translate(0.053 8.167)"><path class="a" d="M-.028,0-.2.22V9.988H.247V.22L.08.443-.028,0-.2.055V.22Z" transform="translate(0.196)"/></g><g transform="translate(0.22 4.91)"><path class="a" d="M-2.228,0h-.055L-15.359,3.257l.109.443L-2.173.443h-.056Z" transform="translate(15.359)"/></g><g transform="translate(13.132 21.302)"><path class="a" d="M-.59-.852l.164-.168L-3.678-5.875l-.387.221L-.81-.744Z" transform="translate(4.065 5.875)"/></g><g transform="translate(35.978 21.302)"><path class="a" d="M-.028-.852l.22.109L3.446-5.654,3.06-5.875-.2-1.02Z" transform="translate(0.195 5.875)"/></g><g transform="translate(13.131 0.111)"><path class="a" d="M-.037-.852.13-.744,3.383-5.6,3-5.874-.257-.963Z" transform="translate(0.257 5.874)"/></g><g transform="translate(35.978 0.111)"><path class="a" d="M-.581-.852l.22-.111L-3.617-5.874-4-5.6-.748-.744Z" transform="translate(4.003 5.874)"/></g><g transform="translate(13.571 9.216)"><path class="b" d="M0-1.386V-9.553H1.547L4.8-4.09V-9.553H6.237v8.167h-1.6L1.49-6.74v5.353Z" transform="translate(0 9.553)"/></g><g transform="translate(21.518 9.216)"><path class="b" d="M0-1.386V-9.553H5.854v1.379H1.6v1.822H5.577v1.379H1.6v2.209H6.016v1.378Z" transform="translate(0 9.553)"/></g><g transform="translate(28.306 9.216)"><path class="b" d="M-.4-1.386V-8.174H-2.775V-9.553H3.516v1.379H1.2v6.788Z" transform="translate(2.775 9.553)"/></g><g transform="translate(35.702 9.161)"><path class="b" d="M-.59-1.4H-2.136V-7.3l-.056.056-.055.055H-2.3v.054l-.052.056-.056.056-.055.056-.057.056h-.11l-.054.053-.056.056-.056.056h-.055l-.056.056-.052.056H-3.02l-.055.053-.056.056h-.056l-.108.056-.056.055h-.056l-.055.056h-.057l-.052.056h-.112l-.056.054h-.055l-.055.055h-.109l-.057.056h-.055V-7.52l.055-.056h.057l.055-.056h.109v-.056h.11l.056-.056.056-.054h.052l.057-.056h.055l.056-.056.056-.055h.052l.056-.056.056-.053h.056l.055-.056.057-.056h.052l.056-.055v-.056H-2.8l.056-.053.056-.056h.054v-.056l.056-.056h.055v-.056l.057-.053h.055v-.056l.056-.055H-2.3V-8.79l.057-.056V-8.9h.055v-.053l.056-.056v-.056h.056v-.055l.052-.056v-.056h.056v-.053l.056-.056v-.111h.056v-.109l.056-.056H-.59Z" transform="translate(4.069 9.618)"/></g></g><text class="c" transform="translate(109 32)"><tspan x="0" y="0">Staff loans</tspan></text></g></svg>